<mxfile host="app.diagrams.net" modified="2023-10-06T13:12:17.429Z" agent="Mozilla/5.0 (Macintosh; Intel Mac OS X 10_15_7) AppleWebKit/537.36 (KHTML, like Gecko) Chrome/117.0.0.0 Safari/537.36" version="22.0.3" etag="Vj_bRxbR_g4U5FSDxkQy" type="github">
  <diagram name="第 1 页" id="KrXr-MOr-vys3XH1og2n">
    <mxGraphModel>
      <root>
        <mxCell id="0" />
        <mxCell id="1" parent="0" />
      </root>
    </mxGraphModel>
  </diagram>
</mxfile>
